<?xml version="1.0" standalone="no"?>
<!DOCTYPE svg PUBLIC "-//W3C//DTD SVG 20010904//EN"
 "http://www.w3.org/TR/2001/REC-SVG-20010904/DTD/svg10.dtd">
<svg version="1.0" xmlns="http://www.w3.org/2000/svg"
 width="365.000000pt" height="365.000000pt" viewBox="0 0 365.000000 365.000000"
 preserveAspectRatio="xMidYMid meet">
<metadata>
Created by potrace 1.11, written by Peter Selinger 2001-2013
</metadata>
<g transform="translate(0.000000,365.000000) scale(0.100000,-0.100000)"
fill="#000000" stroke="none">
<path d="M593 3495 c-330 -89 -453 -472 -241 -744 l34 -44 -57 -111 c-428
-830 -92 -1855 746 -2270 136 -68 299 -123 450 -153 140 -28 483 -25 625 6
136 29 293 81 401 134 l87 42 23 -43 c35 -66 122 -148 196 -183 235 -112 509
-16 620 217 33 69 38 90 41 170 5 97 -10 170 -50 248 -25 49 -109 139 -157
168 -20 12 -38 23 -40 24 -1 2 24 58 58 126 475 963 -50 2104 -1095 2378 -212
55 -505 64 -727 20 -106 -21 -283 -76 -383 -120 l-51 -23 -47 46 c-52 49 -146
100 -216 116 -62 14 -155 12 -217 -4z m1522 -900 c50 -8 162 -35 250 -60 88
-24 173 -45 189 -45 16 0 41 11 58 25 65 55 167 91 225 80 46 -8 42 -29 -12
-68 -60 -42 -128 -66 -191 -67 -50 0 -52 -1 -104 -62 -66 -78 -126 -167 -225
-334 -87 -143 -173 -275 -248 -376 -27 -36 -50 -69 -51 -73 0 -3 28 -16 64
-29 83 -29 190 -83 190 -96 0 -15 -15 -12 -52 9 -40 24 -175 78 -205 82 -17 3
-41 -16 -103 -84 -224 -245 -434 -386 -655 -442 -84 -21 -242 -24 -304 -6
-169 49 -134 231 74 389 227 171 571 249 870 197 82 -15 88 -14 101 2 87 114
193 271 284 423 124 205 185 294 243 358 22 23 38 42 36 42 -2 1 -51 14 -109
29 -58 16 -149 40 -204 55 -386 103 -846 1 -846 -188 0 -79 72 -127 218 -145
131 -17 300 17 421 85 53 29 79 17 29 -14 -128 -79 -351 -120 -498 -92 -282
53 -261 273 35 375 130 45 352 58 520 30z m1237 -1757 c102 -102 143 -239 114
-377 -57 -274 -353 -410 -607 -280 -51 25 -132 107 -158 157 l-21 41 78 52
c163 109 313 255 434 420 l49 68 37 -22 c20 -12 54 -39 74 -59z"/>
<path d="M2699 2538 c-75 -40 -90 -62 -33 -53 46 8 137 49 154 70 24 29 -54
17 -121 -17z"/>
<path d="M1557 1620 c-115 -13 -258 -55 -366 -106 -253 -119 -396 -311 -303
-404 41 -41 99 -53 217 -47 174 9 342 77 524 214 76 57 261 237 300 292 l21
29 -63 11 c-93 16 -242 21 -330 11z"/>
</g>
</svg>
